<mxfile host="app.diagrams.net" modified="2022-10-17T02:08:48.801Z" agent="5.0 (Macintosh; Intel Mac OS X 10_15_7) AppleWebKit/537.36 (KHTML, like Gecko) Chrome/105.0.0.0 Safari/537.36" etag="s_CuehSp54vsammy8Sap" version="20.2.3" type="github">
  <diagram id="Xy-AfKOoRZmUpM65Vi-X" name="Page-1">
    <mxGraphModel dx="1298" dy="698" grid="1" gridSize="10" guides="1" tooltips="1" connect="1" arrows="1" fold="1" page="1" pageScale="1" pageWidth="850" pageHeight="1100" math="0" shadow="0">
      <root>
        <mxCell id="0" />
        <mxCell id="1" parent="0" />
        <mxCell id="ci8PL695M4GVPMbziUbs-1" value="ExtensionLoader" style="shape=umlLifeline;perimeter=lifelinePerimeter;whiteSpace=wrap;html=1;container=1;collapsible=0;recursiveResize=0;outlineConnect=0;" vertex="1" parent="1">
          <mxGeometry x="190" y="190" width="100" height="1520" as="geometry" />
        </mxCell>
        <mxCell id="ci8PL695M4GVPMbziUbs-2" value="" style="html=1;points=[];perimeter=orthogonalPerimeter;" vertex="1" parent="ci8PL695M4GVPMbziUbs-1">
          <mxGeometry x="45" y="90" width="10" height="40" as="geometry" />
        </mxCell>
        <mxCell id="ci8PL695M4GVPMbziUbs-3" value="&lt;pre style=&quot;color: rgb(8, 8, 8); font-family: &amp;quot;JetBrains Mono&amp;quot;, monospace; font-size: 9.8pt;&quot;&gt;&lt;span style=&quot;font-style:italic;&quot;&gt;getExtensionLoader&lt;/span&gt;&lt;/pre&gt;" style="edgeStyle=orthogonalEdgeStyle;html=1;align=left;spacingLeft=2;endArrow=block;rounded=0;entryX=1;entryY=0;" edge="1" parent="ci8PL695M4GVPMbziUbs-1" target="ci8PL695M4GVPMbziUbs-2">
          <mxGeometry relative="1" as="geometry">
            <mxPoint x="50" y="70" as="sourcePoint" />
            <Array as="points">
              <mxPoint x="80" y="70" />
            </Array>
          </mxGeometry>
        </mxCell>
        <mxCell id="ci8PL695M4GVPMbziUbs-4" value="" style="html=1;points=[];perimeter=orthogonalPerimeter;" vertex="1" parent="ci8PL695M4GVPMbziUbs-1">
          <mxGeometry x="44" y="210" width="10" height="530" as="geometry" />
        </mxCell>
        <mxCell id="ci8PL695M4GVPMbziUbs-5" value="&lt;pre style=&quot;color: rgb(8, 8, 8); font-family: &amp;quot;JetBrains Mono&amp;quot;, monospace; font-size: 9.8pt;&quot;&gt;getAdaptiveExtension&lt;/pre&gt;" style="edgeStyle=orthogonalEdgeStyle;html=1;align=left;spacingLeft=2;endArrow=block;rounded=0;entryX=1;entryY=0;" edge="1" parent="ci8PL695M4GVPMbziUbs-1" target="ci8PL695M4GVPMbziUbs-4">
          <mxGeometry relative="1" as="geometry">
            <mxPoint x="49" y="190" as="sourcePoint" />
            <Array as="points">
              <mxPoint x="49" y="180" />
              <mxPoint x="79" y="180" />
              <mxPoint x="79" y="210" />
            </Array>
          </mxGeometry>
        </mxCell>
        <mxCell id="ci8PL695M4GVPMbziUbs-6" value="" style="html=1;points=[];perimeter=orthogonalPerimeter;" vertex="1" parent="ci8PL695M4GVPMbziUbs-1">
          <mxGeometry x="49" y="260" width="10" height="430" as="geometry" />
        </mxCell>
        <mxCell id="ci8PL695M4GVPMbziUbs-7" value="&lt;pre style=&quot;color: rgb(8, 8, 8); font-family: &amp;quot;JetBrains Mono&amp;quot;, monospace; font-size: 9.8pt;&quot;&gt;createAdaptiveExtension&lt;/pre&gt;" style="edgeStyle=orthogonalEdgeStyle;html=1;align=left;spacingLeft=2;endArrow=block;rounded=0;entryX=1;entryY=0;" edge="1" parent="ci8PL695M4GVPMbziUbs-1" target="ci8PL695M4GVPMbziUbs-6">
          <mxGeometry relative="1" as="geometry">
            <mxPoint x="54" y="240" as="sourcePoint" />
            <Array as="points">
              <mxPoint x="84" y="240" />
            </Array>
          </mxGeometry>
        </mxCell>
        <mxCell id="ci8PL695M4GVPMbziUbs-8" value="" style="html=1;points=[];perimeter=orthogonalPerimeter;" vertex="1" parent="ci8PL695M4GVPMbziUbs-1">
          <mxGeometry x="54" y="320" width="10" height="240" as="geometry" />
        </mxCell>
        <mxCell id="ci8PL695M4GVPMbziUbs-9" value="&lt;pre style=&quot;color: rgb(8, 8, 8); font-family: &amp;quot;JetBrains Mono&amp;quot;, monospace; font-size: 9.8pt;&quot;&gt;getAdaptiveExtensionClass&lt;/pre&gt;" style="edgeStyle=orthogonalEdgeStyle;html=1;align=left;spacingLeft=2;endArrow=block;rounded=0;entryX=1;entryY=0;" edge="1" parent="ci8PL695M4GVPMbziUbs-1" target="ci8PL695M4GVPMbziUbs-8">
          <mxGeometry relative="1" as="geometry">
            <mxPoint x="59" y="300" as="sourcePoint" />
            <Array as="points">
              <mxPoint x="89" y="300" />
            </Array>
          </mxGeometry>
        </mxCell>
        <mxCell id="ci8PL695M4GVPMbziUbs-10" value="" style="html=1;points=[];perimeter=orthogonalPerimeter;" vertex="1" parent="ci8PL695M4GVPMbziUbs-1">
          <mxGeometry x="59" y="375" width="10" height="40" as="geometry" />
        </mxCell>
        <mxCell id="ci8PL695M4GVPMbziUbs-11" value="&lt;pre style=&quot;color: rgb(8, 8, 8); font-family: &amp;quot;JetBrains Mono&amp;quot;, monospace; font-size: 9.8pt;&quot;&gt;getExtensionClasses&lt;/pre&gt;" style="edgeStyle=orthogonalEdgeStyle;html=1;align=left;spacingLeft=2;endArrow=block;rounded=0;entryX=1;entryY=0;" edge="1" parent="ci8PL695M4GVPMbziUbs-1" target="ci8PL695M4GVPMbziUbs-10">
          <mxGeometry relative="1" as="geometry">
            <mxPoint x="64" y="355" as="sourcePoint" />
            <Array as="points">
              <mxPoint x="94" y="355" />
            </Array>
          </mxGeometry>
        </mxCell>
        <mxCell id="ci8PL695M4GVPMbziUbs-12" value="" style="html=1;points=[];perimeter=orthogonalPerimeter;" vertex="1" parent="ci8PL695M4GVPMbziUbs-1">
          <mxGeometry x="59" y="470" width="10" height="40" as="geometry" />
        </mxCell>
        <mxCell id="ci8PL695M4GVPMbziUbs-13" value="&lt;pre style=&quot;color: rgb(8, 8, 8); font-family: &amp;quot;JetBrains Mono&amp;quot;, monospace; font-size: 9.8pt;&quot;&gt;createAdaptiveExtensionClass&lt;/pre&gt;" style="edgeStyle=orthogonalEdgeStyle;html=1;align=left;spacingLeft=2;endArrow=block;rounded=0;entryX=1;entryY=0;dashed=1;strokeWidth=1;" edge="1" parent="ci8PL695M4GVPMbziUbs-1" target="ci8PL695M4GVPMbziUbs-12">
          <mxGeometry relative="1" as="geometry">
            <mxPoint x="64" y="450" as="sourcePoint" />
            <Array as="points">
              <mxPoint x="94" y="450" />
            </Array>
          </mxGeometry>
        </mxCell>
        <mxCell id="ci8PL695M4GVPMbziUbs-14" value="" style="html=1;points=[];perimeter=orthogonalPerimeter;" vertex="1" parent="ci8PL695M4GVPMbziUbs-1">
          <mxGeometry x="54" y="620" width="10" height="40" as="geometry" />
        </mxCell>
        <mxCell id="ci8PL695M4GVPMbziUbs-15" value="&lt;pre style=&quot;color: rgb(8, 8, 8); font-family: &amp;quot;JetBrains Mono&amp;quot;, monospace; font-size: 9.8pt;&quot;&gt;injectExtension&lt;/pre&gt;" style="edgeStyle=orthogonalEdgeStyle;html=1;align=left;spacingLeft=2;endArrow=block;rounded=0;entryX=1;entryY=0;dashed=1;strokeWidth=1;" edge="1" parent="ci8PL695M4GVPMbziUbs-1" target="ci8PL695M4GVPMbziUbs-14">
          <mxGeometry relative="1" as="geometry">
            <mxPoint x="59" y="600" as="sourcePoint" />
            <Array as="points">
              <mxPoint x="89" y="600" />
            </Array>
          </mxGeometry>
        </mxCell>
        <mxCell id="ci8PL695M4GVPMbziUbs-16" value="" style="html=1;points=[];perimeter=orthogonalPerimeter;" vertex="1" parent="ci8PL695M4GVPMbziUbs-1">
          <mxGeometry x="44" y="850" width="10" height="540" as="geometry" />
        </mxCell>
        <mxCell id="ci8PL695M4GVPMbziUbs-17" value="&lt;pre style=&quot;color: rgb(8, 8, 8); font-family: &amp;quot;JetBrains Mono&amp;quot;, monospace; font-size: 9.8pt;&quot;&gt;&lt;pre style=&quot;font-family: &amp;quot;JetBrains Mono&amp;quot;, monospace; font-size: 9.8pt;&quot;&gt;getExtension&lt;/pre&gt;&lt;/pre&gt;" style="edgeStyle=orthogonalEdgeStyle;html=1;align=left;spacingLeft=2;endArrow=block;rounded=0;entryX=1;entryY=0;dashed=1;strokeWidth=1;" edge="1" parent="ci8PL695M4GVPMbziUbs-1" target="ci8PL695M4GVPMbziUbs-16">
          <mxGeometry relative="1" as="geometry">
            <mxPoint x="49" y="830" as="sourcePoint" />
            <Array as="points">
              <mxPoint x="79" y="830" />
            </Array>
          </mxGeometry>
        </mxCell>
        <mxCell id="ci8PL695M4GVPMbziUbs-18" value="" style="html=1;points=[];perimeter=orthogonalPerimeter;" vertex="1" parent="ci8PL695M4GVPMbziUbs-1">
          <mxGeometry x="50" y="920" width="10" height="390" as="geometry" />
        </mxCell>
        <mxCell id="ci8PL695M4GVPMbziUbs-19" value="&lt;pre style=&quot;color: rgb(8, 8, 8); font-family: &amp;quot;JetBrains Mono&amp;quot;, monospace; font-size: 9.8pt;&quot;&gt;createExtension&lt;/pre&gt;" style="edgeStyle=orthogonalEdgeStyle;html=1;align=left;spacingLeft=2;endArrow=block;rounded=0;entryX=1;entryY=0;dashed=1;strokeWidth=1;" edge="1" parent="ci8PL695M4GVPMbziUbs-1" target="ci8PL695M4GVPMbziUbs-18">
          <mxGeometry relative="1" as="geometry">
            <mxPoint x="55" y="900" as="sourcePoint" />
            <Array as="points">
              <mxPoint x="85" y="900" />
            </Array>
          </mxGeometry>
        </mxCell>
        <mxCell id="ci8PL695M4GVPMbziUbs-20" value="" style="html=1;points=[];perimeter=orthogonalPerimeter;" vertex="1" parent="ci8PL695M4GVPMbziUbs-1">
          <mxGeometry x="55" y="985" width="10" height="40" as="geometry" />
        </mxCell>
        <mxCell id="ci8PL695M4GVPMbziUbs-21" value="&lt;pre style=&quot;color: rgb(8, 8, 8); font-family: &amp;quot;JetBrains Mono&amp;quot;, monospace; font-size: 9.8pt;&quot;&gt;newInstance&lt;/pre&gt;" style="edgeStyle=orthogonalEdgeStyle;html=1;align=left;spacingLeft=2;endArrow=block;rounded=0;entryX=1;entryY=0;dashed=1;strokeWidth=1;" edge="1" parent="ci8PL695M4GVPMbziUbs-1" target="ci8PL695M4GVPMbziUbs-20">
          <mxGeometry relative="1" as="geometry">
            <mxPoint x="60" y="965" as="sourcePoint" />
            <Array as="points">
              <mxPoint x="90" y="965" />
            </Array>
          </mxGeometry>
        </mxCell>
        <mxCell id="ci8PL695M4GVPMbziUbs-22" value="" style="html=1;points=[];perimeter=orthogonalPerimeter;" vertex="1" parent="ci8PL695M4GVPMbziUbs-1">
          <mxGeometry x="54" y="1090" width="10" height="40" as="geometry" />
        </mxCell>
        <mxCell id="ci8PL695M4GVPMbziUbs-23" value="&lt;pre style=&quot;color: rgb(8, 8, 8); font-family: &amp;quot;JetBrains Mono&amp;quot;, monospace; font-size: 9.8pt;&quot;&gt;injectExtension&lt;/pre&gt;" style="edgeStyle=orthogonalEdgeStyle;html=1;align=left;spacingLeft=2;endArrow=block;rounded=0;entryX=1;entryY=0;dashed=1;strokeWidth=1;" edge="1" parent="ci8PL695M4GVPMbziUbs-1" target="ci8PL695M4GVPMbziUbs-22">
          <mxGeometry relative="1" as="geometry">
            <mxPoint x="59" y="1070" as="sourcePoint" />
            <Array as="points">
              <mxPoint x="89" y="1070" />
            </Array>
          </mxGeometry>
        </mxCell>
        <mxCell id="ci8PL695M4GVPMbziUbs-24" value="仅是创建&lt;span style=&quot;background-color: rgb(255, 255, 255); font-family: &amp;quot;JetBrains Mono&amp;quot;, monospace; font-size: 9.8pt;&quot;&gt;ExtensionLoader实例，此处还未涉及类加载&lt;/span&gt;" style="shape=note;size=14;whiteSpace=wrap;html=1;" vertex="1" parent="1">
          <mxGeometry x="320" y="180" width="210" height="60" as="geometry" />
        </mxCell>
        <mxCell id="ci8PL695M4GVPMbziUbs-25" value="" style="endArrow=none;dashed=1;html=1;strokeWidth=1;rounded=0;entryX=-0.01;entryY=0.617;entryDx=0;entryDy=0;entryPerimeter=0;exitX=0.5;exitY=0;exitDx=0;exitDy=0;exitPerimeter=0;" edge="1" parent="1" source="ci8PL695M4GVPMbziUbs-2" target="ci8PL695M4GVPMbziUbs-24">
          <mxGeometry width="50" height="50" relative="1" as="geometry">
            <mxPoint x="270" y="260" as="sourcePoint" />
            <mxPoint x="450" y="400" as="targetPoint" />
          </mxGeometry>
        </mxCell>
        <mxCell id="ci8PL695M4GVPMbziUbs-26" value="此处会加载所有拓展实现类和SPI的默认实现配置&lt;br&gt;并为默认拓展实现类创建适配器类(模板代码默认通过&lt;span style=&quot;color: rgb(6, 125, 23); background-color: rgb(255, 255, 255); font-family: &amp;quot;JetBrains Mono&amp;quot;, monospace; font-size: 9.8pt;&quot;&gt;javassist&lt;/span&gt;&lt;span style=&quot;background-color: initial;&quot;&gt;)&lt;/span&gt;" style="shape=note;size=20;whiteSpace=wrap;html=1;" vertex="1" parent="1">
          <mxGeometry x="310" y="310" width="370" height="40" as="geometry" />
        </mxCell>
        <mxCell id="ci8PL695M4GVPMbziUbs-27" value="" style="endArrow=none;dashed=1;html=1;strokeWidth=1;rounded=0;entryX=0;entryY=0.5;entryDx=0;entryDy=0;entryPerimeter=0;exitX=0.4;exitY=-0.002;exitDx=0;exitDy=0;exitPerimeter=0;" edge="1" parent="1" source="ci8PL695M4GVPMbziUbs-4" target="ci8PL695M4GVPMbziUbs-26">
          <mxGeometry width="50" height="50" relative="1" as="geometry">
            <mxPoint x="270" y="370" as="sourcePoint" />
            <mxPoint x="470" y="450" as="targetPoint" />
          </mxGeometry>
        </mxCell>
        <mxCell id="ci8PL695M4GVPMbziUbs-28" value="创建适配器类" style="shape=note;size=20;whiteSpace=wrap;html=1;" vertex="1" parent="1">
          <mxGeometry x="310" y="400" width="130" height="30" as="geometry" />
        </mxCell>
        <mxCell id="ci8PL695M4GVPMbziUbs-29" value="" style="endArrow=none;dashed=1;html=1;strokeWidth=1;rounded=0;exitX=0.6;exitY=-0.012;exitDx=0;exitDy=0;exitPerimeter=0;entryX=0;entryY=0.5;entryDx=0;entryDy=0;entryPerimeter=0;" edge="1" parent="1" source="ci8PL695M4GVPMbziUbs-6" target="ci8PL695M4GVPMbziUbs-28">
          <mxGeometry width="50" height="50" relative="1" as="geometry">
            <mxPoint x="350" y="550" as="sourcePoint" />
            <mxPoint x="400" y="500" as="targetPoint" />
          </mxGeometry>
        </mxCell>
        <mxCell id="ci8PL695M4GVPMbziUbs-30" value="加载所有在指定配置文件中配置的拓展实现类和SPI注解的默认实现配置" style="shape=note;size=20;whiteSpace=wrap;html=1;" vertex="1" parent="1">
          <mxGeometry x="490" y="495" width="200" height="55" as="geometry" />
        </mxCell>
        <mxCell id="ci8PL695M4GVPMbziUbs-31" value="" style="endArrow=none;dashed=1;html=1;rounded=0;strokeWidth=1;exitX=0.6;exitY=0.013;exitDx=0;exitDy=0;exitPerimeter=0;entryX=0;entryY=0.5;entryDx=0;entryDy=0;entryPerimeter=0;" edge="1" parent="1" source="ci8PL695M4GVPMbziUbs-10" target="ci8PL695M4GVPMbziUbs-30">
          <mxGeometry width="50" height="50" relative="1" as="geometry">
            <mxPoint x="300" y="640" as="sourcePoint" />
            <mxPoint x="350" y="590" as="targetPoint" />
          </mxGeometry>
        </mxCell>
        <mxCell id="ci8PL695M4GVPMbziUbs-32" value="为默认拓展实现类创建适配器类" style="shape=note;size=20;whiteSpace=wrap;html=1;" vertex="1" parent="1">
          <mxGeometry x="320" y="580" width="190" height="45" as="geometry" />
        </mxCell>
        <mxCell id="ci8PL695M4GVPMbziUbs-33" value="" style="endArrow=none;dashed=1;html=1;rounded=0;strokeWidth=1;exitX=0.7;exitY=0.013;exitDx=0;exitDy=0;exitPerimeter=0;entryX=0;entryY=0.5;entryDx=0;entryDy=0;entryPerimeter=0;" edge="1" parent="1" source="ci8PL695M4GVPMbziUbs-12" target="ci8PL695M4GVPMbziUbs-32">
          <mxGeometry width="50" height="50" relative="1" as="geometry">
            <mxPoint x="370" y="730" as="sourcePoint" />
            <mxPoint x="420" y="680" as="targetPoint" />
          </mxGeometry>
        </mxCell>
        <mxCell id="ci8PL695M4GVPMbziUbs-34" value="此处为IOC实现点&lt;br&gt;为拓展实现类中的其他拓展点属性注入对象" style="shape=note;size=20;whiteSpace=wrap;html=1;" vertex="1" parent="1">
          <mxGeometry x="380" y="740" width="270" height="50" as="geometry" />
        </mxCell>
        <mxCell id="ci8PL695M4GVPMbziUbs-35" value="" style="endArrow=none;dashed=1;html=1;rounded=0;strokeWidth=1;exitX=0.6;exitY=-0.025;exitDx=0;exitDy=0;exitPerimeter=0;entryX=0;entryY=0.5;entryDx=0;entryDy=0;entryPerimeter=0;" edge="1" parent="1" source="ci8PL695M4GVPMbziUbs-14" target="ci8PL695M4GVPMbziUbs-34">
          <mxGeometry width="50" height="50" relative="1" as="geometry">
            <mxPoint x="320" y="900" as="sourcePoint" />
            <mxPoint x="370" y="850" as="targetPoint" />
          </mxGeometry>
        </mxCell>
        <mxCell id="ci8PL695M4GVPMbziUbs-36" value="完成后会实例化创建对象" style="shape=note;size=20;whiteSpace=wrap;html=1;" vertex="1" parent="1">
          <mxGeometry x="290" y="700" width="170" height="40" as="geometry" />
        </mxCell>
        <mxCell id="ci8PL695M4GVPMbziUbs-37" value="" style="endArrow=none;dashed=1;html=1;rounded=0;strokeWidth=1;exitX=1;exitY=0.933;exitDx=0;exitDy=0;exitPerimeter=0;entryX=0;entryY=0.5;entryDx=0;entryDy=0;entryPerimeter=0;" edge="1" parent="1" source="ci8PL695M4GVPMbziUbs-8" target="ci8PL695M4GVPMbziUbs-36">
          <mxGeometry width="50" height="50" relative="1" as="geometry">
            <mxPoint x="560" y="710" as="sourcePoint" />
            <mxPoint x="610" y="660" as="targetPoint" />
          </mxGeometry>
        </mxCell>
        <mxCell id="ci8PL695M4GVPMbziUbs-38" value="通过给定的name获取拓展实现类对象&lt;br&gt;上方创建适配器类创建对象时也会调用此处&lt;br&gt;最终返回的一般是经过Wrapper类装饰增强的对象" style="shape=note;size=20;whiteSpace=wrap;html=1;" vertex="1" parent="1">
          <mxGeometry x="305" y="950" width="275" height="50" as="geometry" />
        </mxCell>
        <mxCell id="ci8PL695M4GVPMbziUbs-39" value="" style="endArrow=none;dashed=1;html=1;rounded=0;strokeWidth=1;exitX=0.6;exitY=-0.025;exitDx=0;exitDy=0;exitPerimeter=0;entryX=0;entryY=0.5;entryDx=0;entryDy=0;entryPerimeter=0;" edge="1" parent="1" source="ci8PL695M4GVPMbziUbs-16" target="ci8PL695M4GVPMbziUbs-38">
          <mxGeometry width="50" height="50" relative="1" as="geometry">
            <mxPoint x="250" y="1000" as="sourcePoint" />
            <mxPoint x="300" y="970" as="targetPoint" />
          </mxGeometry>
        </mxCell>
        <mxCell id="ci8PL695M4GVPMbziUbs-40" value="&lt;pre style=&quot;background-color:#ffffff;color:#080808;font-family:&#39;JetBrains Mono&#39;,monospace;font-size:9.8pt;&quot;&gt;&lt;span style=&quot;color:#000000;&quot;&gt;wrapperClasses&lt;/span&gt;&lt;/pre&gt;" style="shape=umlFrame;whiteSpace=wrap;html=1;width=120;height=40;" vertex="1" parent="1">
          <mxGeometry x="100" y="1340" width="350" height="90" as="geometry" />
        </mxCell>
        <mxCell id="ci8PL695M4GVPMbziUbs-41" value="" style="html=1;points=[];perimeter=orthogonalPerimeter;" vertex="1" parent="1">
          <mxGeometry x="244" y="1380" width="10" height="40" as="geometry" />
        </mxCell>
        <mxCell id="ci8PL695M4GVPMbziUbs-42" value="&lt;pre style=&quot;color: rgb(8, 8, 8); font-family: &amp;quot;JetBrains Mono&amp;quot;, monospace; font-size: 9.8pt;&quot;&gt;injectExtension&lt;/pre&gt;" style="edgeStyle=orthogonalEdgeStyle;html=1;align=left;spacingLeft=2;endArrow=block;rounded=0;entryX=1;entryY=0;dashed=1;strokeWidth=1;" edge="1" parent="1" target="ci8PL695M4GVPMbziUbs-41">
          <mxGeometry relative="1" as="geometry">
            <mxPoint x="249" y="1360" as="sourcePoint" />
            <Array as="points">
              <mxPoint x="279" y="1360" />
            </Array>
          </mxGeometry>
        </mxCell>
        <mxCell id="ci8PL695M4GVPMbziUbs-43" value="使用装饰模式将之前拓展实现类加载时识别的Wrapper类进行封装增强&lt;br&gt;同时也会IOC注入Wrapper内部的属性对象" style="shape=note;size=20;whiteSpace=wrap;html=1;" vertex="1" parent="1">
          <mxGeometry x="480" y="1240" width="240" height="100" as="geometry" />
        </mxCell>
        <mxCell id="ci8PL695M4GVPMbziUbs-44" value="" style="endArrow=none;dashed=1;html=1;rounded=0;strokeWidth=1;exitX=0.88;exitY=-0.044;exitDx=0;exitDy=0;exitPerimeter=0;entryX=0;entryY=0.5;entryDx=0;entryDy=0;entryPerimeter=0;" edge="1" parent="1" source="ci8PL695M4GVPMbziUbs-40" target="ci8PL695M4GVPMbziUbs-43">
          <mxGeometry width="50" height="50" relative="1" as="geometry">
            <mxPoint x="490" y="1450" as="sourcePoint" />
            <mxPoint x="540" y="1400" as="targetPoint" />
          </mxGeometry>
        </mxCell>
      </root>
    </mxGraphModel>
  </diagram>
</mxfile>
